<svg version="1.2" xmlns="http://www.w3.org/2000/svg" viewBox="0 0 1280 250" width="100%" max-width="600">
  <style>
    @keyframes draw {
      0% {
        stroke-dashoffset: 2000;
        fill: rgba(80, 250, 123, 0);
      }
      70% {
        fill: rgba(80, 250, 123, 0);
      }
      100% {
        stroke-dashoffset: 0;
        fill: rgba(80, 250, 123, 1);
      }
    }
    .a {
      stroke: #50fa7b;
      stroke-width: 2;
      stroke-dasharray: 2000;
      stroke-dashoffset: 2000;
      animation: draw 3s ease-in-out forwards;
    }
  </style>
  <path class="a" d="m93.3 208.3q-26.4 0-41.6-13.9-15.1-13.9-15.1-41.1 0-27.2 15.4-40.9 15.3-13.7 41-13.7 14.3 0 24.5 4.1 10.3 4.1 16.6 11.1v-75.9h37.1v168h-29.7l-5.9-15.6q-6.1 8.1-16.6 13.1-10.5 4.8-25.7 4.8zm-17.4-55q0 12.9 6.5 19.9 6.6 7 21.1 7 8.4 0 14.9-3 6.5-3 10.5-7.6 4.1-4.8 5.2-9.8v-12.9q-1.8-7.8-10-13.9-8.2-6.2-20.2-6.2-14.4 0-21.2 6.9-6.8 6.8-6.8 19.6zm205.3-54.8q18.4 0 33 4.5 14.6 4.5 23 13 8.5 8.5 8.5 20.6v38.3l15.3 17.1-26 18.3-13.5-16.6q-5.9 5.2-18 9.9-11.9 4.7-31.5 4.7-26.2 0-41.2-8.8-14.9-8.9-14.9-26.3 0-16.2 16.3-24 16.4-7.8 47.4-7.8h31.1v-0.5q0-5.3-4.3-8.6-4.3-3.5-11.5-5.1-7-1.6-15.2-1.6-11.4 0-20.3 3.3-8.7 3.4-12.7 7.1l-29-20q3.9-3.9 12.7-7.9 8.8-4.1 21.6-6.8 12.9-2.8 29.2-2.8zm-4.9 85.1q11 0 20.3-2.9 9.5-2.9 14.1-7.8v-9.2h-28.7q-16.7 0-23.3 2.4-6.6 2.4-6.6 7.1 0 5.3 5.8 7.9 5.7 2.5 18.4 2.5zm189.6-4.7l25.1-77.9h38.2l-39.2 105h-52.3l-39-105h38.1l25.2 77.9zm132.8 27.1h-35.3v-105h30.4l3.7 15.5q5.7-7.6 13.8-12.7 8.1-5.1 17.5-5.1 11.5 0 18.6 5.1 7.2 5.1 10.2 13.3 6.1-7.9 14.7-13.2 8.7-5.2 18.7-5.2 16.8 0 25.1 9.2 8.3 9.2 8.3 24v74.1h-35v-60.7q0-9.2-2.9-14.7-3-5.6-10.2-5.6-4.5 0-8.2 3.3-3.7 3.1-5.9 7.6-2.2 4.4-2.5 8.2v61.9h-32.8v-60.9q0-9.3-2-14.7-2.2-5.4-9.6-5.4-4.6 0-8.2 3.1-3.6 2.9-5.8 7.2-2.2 4.2-2.6 7.9zm208.6 2.3q-26.4 0-41.5-13.8-15.2-14-15.2-41.2 0-27.2 15.4-40.8 15.3-13.8 41-13.8 14.3 0 24.5 4.1 10.3 4.1 16.6 11.1v-75.9h37.1v168h-29.7l-5.8-15.6q-6.1 8.2-16.6 13.1-10.5 4.8-25.8 4.8zm-17.4-55q0 12.9 6.5 20 6.6 6.9 21.1 6.9 8.4 0 14.9-3 6.5-3 10.5-7.6 4.1-4.7 5.2-9.8v-12.9q-1.8-7.8-10-13.9-8.2-6.2-20.2-6.2-14.3 0-21.2 6.9-6.8 6.8-6.8 19.6zm243.4 15.9l30.3 18.8q-4.4 4-12.7 8.9-8.1 4.7-20.6 8.1-12.5 3.3-29.8 3.3-14.7 0-27.8-3.3-13.1-3.5-23.2-10.4-10-7-15.7-17.4-5.8-10.4-5.8-24.2 0-13.9 5.8-24.1 5.8-10.2 15.8-17 10.1-6.8 23-10 13-3.4 27.3-3.4 14.1 0 26.6 3.5 12.6 3.3 22.1 10.7 9.7 7.2 15.2 18.8 5.4 11.5 5.4 27.9h-103.2q2.1 10.7 11.2 16.4 9.2 5.5 23.3 5.5 11.7 0 20.4-3.7 8.8-3.8 12.4-8.4zm-32.4-44.7q-11.4 0-20.1 3.8-8.7 3.8-12.6 12.2h62.1q-0.3-2.9-3.4-6.6-3.2-3.8-9.7-6.5-6.4-2.9-16.3-2.9zm179 54.4l25.1-77.9h38.2l-39.2 105h-52.3l-39-105h38.1l25.2 77.9z"/>
</svg>
